<?xml version="1.0" standalone="no"?>
<!DOCTYPE svg PUBLIC "-//W3C//DTD SVG 20010904//EN"
 "http://www.w3.org/TR/2001/REC-SVG-20010904/DTD/svg10.dtd">
<svg version="1.0" xmlns="http://www.w3.org/2000/svg"
 width="603.000000pt" height="500.000000pt" viewBox="0 0 603.000000 500.000000"
 preserveAspectRatio="xMidYMid meet">

<g transform="translate(0.000000,500.000000) scale(0.100000,-0.100000)"
fill="#7f7f7f" stroke="none">
<path d="M2993 4990 c-116 -24 -204 -118 -221 -237 l-7 -48 -994 -728 c-985
-722 -1010 -739 -1011 -689 0 25 -40 91 -76 126 -140 136 -376 91 -455 -87
-66 -148 10 -329 161 -382 65 -23 155 -19 215 9 62 29 130 101 146 155 7 23
15 41 18 41 3 0 108 -147 233 -325 l227 -325 -227 -325 c-125 -178 -230 -325
-233 -325 -3 0 -11 18 -18 41 -16 54 -84 126 -146 155 -60 28 -150 32 -215 9
-151 -53 -227 -234 -161 -382 79 -178 315 -223 455 -87 36 35 76 101 76 126 1
50 26 33 1011 -689 642 -471 995 -735 998 -748 2 -11 6 -22 10 -25 4 -3 14
-31 24 -62 20 -65 78 -132 142 -163 56 -28 194 -28 250 0 91 45 155 145 155
241 l0 43 961 1043 c529 574 974 1056 989 1072 l28 28 17 -52 c20 -62 70 -121
133 -157 67 -39 171 -44 243 -11 76 35 114 70 145 135 103 210 -82 451 -310
403 -98 -20 -195 -108 -213 -193 -3 -15 -10 -26 -15 -25 -4 2 -454 486 -998
1077 -647 701 -992 1082 -995 1099 -19 92 -39 136 -81 179 -72 71 -167 101
-261 83z m173 -96 c68 -42 107 -117 102 -196 -12 -168 -191 -261 -334 -172
-68 42 -107 117 -102 196 12 168 191 261 334 172z m1149 -1284 c494 -536 916
-995 939 -1019 32 -34 36 -41 16 -31 -58 30 -1897 1023 -1917 1036 -13 8 -23
24 -23 37 0 42 -31 114 -66 155 -81 95 -224 124 -337 68 -88 -43 -157 -141
-157 -223 0 -15 -7 -24 -22 -28 -78 -18 -812 -154 -816 -151 -5 5 820 1181
832 1187 5 2 14 -10 20 -28 37 -107 146 -183 263 -183 130 0 238 78 274 199
l13 42 42 -43 c23 -24 445 -482 939 -1018z m-1591 1028 c-13 -23 -817 -1173
-828 -1185 -11 -12 -1049 -216 -1073 -211 -9 2 1890 1405 1905 1407 2 1 0 -5
-4 -11z m442 -844 c68 -42 107 -117 102 -196 -12 -168 -191 -261 -334 -172
-68 42 -107 117 -102 196 12 168 191 261 334 172z m-430 -223 c-12 -19 -828
-736 -841 -739 -15 -3 -305 94 -317 106 -6 6 290 443 321 475 6 6 786 161 834
166 5 1 6 -3 3 -8z m1586 -526 c534 -289 974 -527 976 -530 3 -3 -437 -5 -977
-5 -777 0 -982 3 -985 13 -29 105 -40 129 -79 169 -65 67 -106 83 -212 83 -86
0 -93 -2 -143 -33 -63 -41 -107 -98 -123 -163 -7 -27 -18 -49 -25 -49 -7 0
-162 52 -345 116 -471 163 -480 166 -477 174 2 4 189 172 417 374 l415 367 17
-45 c25 -68 55 -111 96 -139 116 -80 246 -77 358 8 35 27 95 132 95 167 0 10
4 18 10 18 5 0 447 -236 982 -525z m-3769 374 c49 -13 115 -73 138 -124 36
-78 16 -176 -47 -238 -39 -39 -76 -57 -132 -64 -130 -15 -252 89 -252 217 0
145 147 250 293 209z m1307 -13 c0 -4 -305 -443 -316 -455 -2 -2 -170 54 -374
125 -204 71 -365 131 -358 133 17 6 1008 198 1031 200 9 0 17 -1 17 -3z m-683
-357 l351 -122 -50 -71 c-28 -39 -64 -92 -82 -118 -17 -26 -34 -48 -38 -48 -4
0 -129 108 -278 240 -149 132 -267 240 -263 240 5 0 166 -54 360 -121z m-9
-228 c94 -84 172 -155 172 -158 0 -3 -22 -36 -48 -73 l-48 -69 -207 294 c-114
162 -207 297 -207 301 0 4 37 -27 83 -68 45 -41 160 -143 255 -227z m699 -15
c6 -5 -306 -281 -317 -281 -17 0 -171 138 -167 149 3 6 41 64 86 128 l82 117
156 -55 c86 -30 158 -56 160 -58z m516 -177 c196 -68 357 -126 357 -129 0 -3
-161 -61 -357 -129 -197 -69 -385 -134 -419 -147 l-61 -22 -164 145 c-90 79
-164 148 -164 153 0 5 74 74 164 153 l164 145 61 -22 c34 -13 222 -78 419
-147z m781 54 c53 -36 96 -119 96 -183 0 -66 -43 -147 -98 -185 -38 -26 -52
-30 -112 -30 -60 0 -74 4 -112 30 -55 38 -98 119 -98 184 0 90 67 186 147 211
50 17 133 4 177 -27z m2510 15 c78 -24 146 -118 146 -203 0 -113 -102 -215
-215 -215 -113 0 -215 102 -215 215 0 53 25 110 65 150 60 60 134 78 219 53z
m-4154 -198 c0 -4 -35 -40 -79 -79 l-79 -71 -51 75 -52 75 52 75 51 75 79 -71
c44 -39 79 -75 79 -79z m3778 -15 c-10 -11 -1949 -1055 -1958 -1055 -6 0 -10
8 -10 18 0 35 -60 140 -95 167 -60 45 -115 65 -183 65 -130 0 -228 -71 -272
-198 l-16 -44 -414 368 c-228 202 -416 370 -418 374 -3 8 6 11 477 174 183 64
338 116 345 116 6 0 19 -27 28 -59 13 -42 30 -71 60 -103 65 -66 107 -83 208
-83 101 0 143 17 207 83 39 40 50 64 79 170 3 9 208 12 985 12 540 0 980 -2
977 -5z m-3975 -167 c-45 -44 -488 -435 -491 -433 -2 2 90 136 204 299 l208
295 49 -70 c49 -71 50 -71 30 -91z m392 18 c86 -76 155 -140 152 -142 -2 -2
-74 -28 -160 -58 l-156 -55 -82 117 c-45 64 -83 122 -86 128 -4 11 157 156
169 151 4 -1 77 -64 163 -141z m3523 55 c-298 -328 -1884 -2041 -1889 -2041
-4 0 -10 12 -14 27 -17 70 -92 141 -185 176 -49 18 -187 24 -160 7 13 -8 12
-10 -4 -10 -31 0 -113 -58 -145 -102 -16 -22 -35 -62 -42 -89 -12 -47 -29 -66
-29 -33 0 9 -189 286 -421 616 -231 330 -419 602 -417 604 4 3 738 -133 816
-151 15 -4 22 -13 22 -28 0 -42 31 -114 66 -155 109 -127 319 -127 428 0 35
41 66 113 66 154 0 13 6 26 12 31 17 11 1942 1052 1946 1053 2 0 -20 -26 -50
-59z m-3842 -129 c18 -26 54 -79 82 -118 l50 -71 -351 -122 c-194 -67 -355
-121 -360 -121 -4 0 114 108 263 240 149 132 274 240 278 240 4 0 21 -22 38
-48z m929 -466 c229 -202 415 -370 413 -371 -2 -2 -190 32 -418 76 -228 43
-416 79 -417 79 -5 0 -323 462 -325 472 -3 14 275 117 309 115 14 -1 185 -146
438 -371z m-622 28 c87 -125 156 -228 154 -230 -4 -5 -1047 193 -1053 199 -4
3 715 255 731 256 6 0 81 -101 168 -225z m-1150 175 c49 -13 115 -73 138 -124
36 -78 16 -176 -47 -238 -39 -39 -76 -57 -132 -64 -130 -15 -252 89 -252 217
0 145 147 250 293 209z m807 -339 c289 -56 530 -106 536 -113 12 -13 815
-1163 829 -1187 5 -8 -7 -3 -26 11 -18 14 -450 331 -959 703 -509 373 -929
682 -934 686 -5 5 -1 7 10 4 10 -2 255 -49 544 -104z m1765 -59 c143 -65 178
-254 68 -365 -90 -91 -227 -86 -315 12 -77 86 -77 208 0 294 45 50 102 78 162
78 25 0 63 -9 85 -19z m59 -1138 c53 -36 96 -119 96 -183 0 -66 -43 -147 -98
-185 -38 -26 -52 -30 -112 -30 -60 0 -74 4 -112 30 -55 38 -98 119 -98 184 0
90 67 186 147 211 50 17 133 4 177 -27z"/>
</g>
</svg>
