<?xml version="1.0" standalone="no"?>
<!DOCTYPE svg PUBLIC "-//W3C//DTD SVG 20010904//EN"
 "http://www.w3.org/TR/2001/REC-SVG-20010904/DTD/svg10.dtd">
<svg version="1.0" xmlns="http://www.w3.org/2000/svg"
 width="540.000000pt" height="540.000000pt" viewBox="0 0 540.000000 540.000000"
 preserveAspectRatio="xMidYMid meet">

<g transform="translate(0.000000,540.000000) scale(0.100000,-0.100000)"
fill="#ffffff" stroke="none">
<path d="M4018 4533 l-3 -146 -940 -314 -940 -313 -777 0 -778 0 0 -225 0
-225 685 0 685 0 0 -460 0 -460 -456 2 -455 3 -2 225 -2 225 -227 3 -228 2 0
-460 0 -460 384 0 384 0 228 -682 c124 -376 228 -686 230 -689 3 -5 418 132
428 142 3 3 -86 281 -198 617 l-204 612 161 -1 162 -1 930 -311 930 -312 3
-148 3 -147 227 2 227 3 3 1833 2 1832 -230 0 -229 0 -3 -147z m2 -1689 c0
-841 -3 -1055 -12 -1052 -7 3 -370 124 -805 269 l-793 264 0 522 0 521 793
265 c435 146 798 266 805 266 9 1 12 -216 12 -1055z"/>
<path d="M4706 3302 c-3 -3 -6 -207 -6 -454 0 -510 -8 -469 90 -450 214 39
370 228 370 447 0 201 -129 380 -315 438 -57 17 -131 28 -139 19z"/>
</g>
</svg>
