<svg class="svg-icon" style="width: 1em; height: 1em;vertical-align: middle;fill: currentColor;overflow: hidden;" viewBox="0 0 1024 1024" version="1.1" xmlns="http://www.w3.org/2000/svg"><path d="M115.498667 417.834667L512 814.336l396.501333-396.501333a42.666667 42.666667 0 0 1 60.330667 60.330666l-426.666667 426.666667a42.666667 42.666667 0 0 1-60.330666 0l-426.666667-426.666667a42.666667 42.666667 0 0 1 60.330667-60.330666z m0-298.666667L512 515.669333 908.501333 119.168a42.666667 42.666667 0 0 1 60.330667 60.330667l-426.666667 426.666666a42.666667 42.666667 0 0 1-60.330666 0l-426.666667-426.666666a42.666667 42.666667 0 1 1 60.330667-60.330667z" fill="#ffffff" /></svg>