<?xml version="1.0" standalone="no"?>
<!DOCTYPE svg PUBLIC "-//W3C//DTD SVG 20010904//EN"
 "http://www.w3.org/TR/2001/REC-SVG-20010904/DTD/svg10.dtd">
<svg version="1.0" xmlns="http://www.w3.org/2000/svg"
 width="540.000000pt" height="540.000000pt" viewBox="0 0 540.000000 540.000000"
 preserveAspectRatio="xMidYMid meet">

<g transform="translate(0.000000,540.000000) scale(0.100000,-0.100000)"
fill="#ffffff" stroke="none">
<path d="M2420 4784 c-423 -57 -836 -262 -1145 -569 -724 -718 -807 -1847
-195 -2660 274 -363 651 -618 1094 -740 164 -44 308 -64 535 -72 l191 -6 0
206 0 207 -142 0 c-79 0 -183 5 -233 10 -619 71 -1133 471 -1348 1050 -63 170
-89 311 -95 512 -5 191 3 277 43 444 85 360 321 710 625 927 113 80 319 183
450 226 330 106 677 104 1008 -5 244 -80 456 -209 636 -389 252 -251 403 -547
461 -905 12 -76 15 -189 15 -556 0 -518 0 -517 -72 -599 -112 -127 -303 -140
-427 -29 -100 90 -95 63 -102 589 -6 485 -10 531 -59 674 -111 332 -397 587
-745 667 -106 24 -330 25 -430 0 -206 -49 -374 -145 -516 -293 -340 -354 -377
-902 -87 -1295 69 -94 200 -214 297 -272 294 -177 640 -193 951 -45 46 22 106
56 133 75 27 20 50 34 51 32 2 -2 10 -33 20 -70 86 -350 423 -585 773 -538
278 37 502 227 594 505 23 68 23 81 27 520 4 486 -3 617 -43 806 -78 376 -272
736 -545 1010 -279 281 -608 462 -1010 557 -173 41 -507 53 -710 26z m412
-1415 c29 -6 91 -29 138 -51 216 -103 355 -346 337 -588 -7 -89 -43 -200 -89
-277 -46 -76 -161 -181 -242 -221 -94 -46 -166 -62 -276 -62 -177 0 -300 50
-426 175 -63 62 -89 97 -118 157 -86 180 -86 369 2 548 72 147 234 277 394
316 67 16 210 17 280 3z"/>
</g>
</svg>
