<?xml version="1.0" standalone="no"?>
<!DOCTYPE svg PUBLIC "-//W3C//DTD SVG 20010904//EN"
 "http://www.w3.org/TR/2001/REC-SVG-20010904/DTD/svg10.dtd">
<svg version="1.0" xmlns="http://www.w3.org/2000/svg"
 width="540.000000pt" height="540.000000pt" viewBox="0 0 540.000000 540.000000"
 preserveAspectRatio="xMidYMid meet">

<g transform="translate(0.000000,540.000000) scale(0.100000,-0.100000)"
fill="#ffffff" stroke="none">
<path d="M1442 3925 c-253 -46 -506 -184 -686 -376 -194 -206 -305 -455 -336
-749 -21 -202 22 -432 119 -636 165 -346 467 -588 849 -681 107 -26 109 -27
605 -30 l497 -4 0 210 0 210 -492 3 c-476 4 -496 5 -566 26 -246 75 -447 256
-539 484 -173 429 34 918 460 1087 139 56 202 61 693 61 l444 0 0 205 0 205
-487 -1 c-359 -1 -507 -4 -561 -14z"/>
<path d="M2910 3735 l0 -205 444 0 c496 0 555 -5 701 -64 263 -106 451 -340
500 -622 20 -114 19 -200 -4 -310 -37 -181 -96 -289 -231 -424 -76 -76 -113
-104 -185 -142 -178 -93 -171 -92 -732 -96 l-493 -3 0 -210 0 -209 449 0 c267
0 481 4 527 11 434 60 783 310 970 694 142 293 166 591 72 910 -107 366 -421
688 -793 814 -169 57 -219 61 -746 61 l-479 0 0 -205z"/>
<path d="M1877 2903 c-4 -3 -7 -98 -7 -210 l0 -203 830 0 830 0 -2 208 -3 207
-821 3 c-451 1 -824 -1 -827 -5z"/>
</g>
</svg>
