<?xml version="1.0" standalone="no"?>
<!DOCTYPE svg PUBLIC "-//W3C//DTD SVG 20010904//EN"
 "http://www.w3.org/TR/2001/REC-SVG-20010904/DTD/svg10.dtd">
<svg version="1.0" xmlns="http://www.w3.org/2000/svg"
 width="518.000000pt" height="534.000000pt" viewBox="0 0 518.000000 534.000000"
 preserveAspectRatio="xMidYMid meet">

<g transform="translate(0.000000,534.000000) scale(0.100000,-0.100000)"
fill="#ffffff" stroke="none">
<path d="M2485 4990 c-415 -44 -760 -343 -872 -755 l-28 -100 0 -640 c0 -492
3 -654 13 -700 70 -321 267 -578 547 -716 55 -27 145 -61 200 -75 86 -23 120
-27 245 -27 124 0 159 4 245 26 357 94 633 369 732 732 l28 100 0 650 0 650
-27 96 c-117 425 -454 714 -887 760 -95 10 -95 10 -196 -1z m310 -245 c208
-56 400 -215 496 -410 79 -161 79 -159 79 -850 0 -581 -1 -616 -20 -691 -91
-355 -397 -594 -760 -594 -363 0 -669 239 -760 594 -19 75 -20 110 -20 691 0
581 1 616 20 691 75 291 303 513 595 578 87 19 283 15 370 -9z"/>
<path d="M2533 4360 c-17 -10 -37 -28 -42 -39 -7 -12 -11 -99 -11 -226 l0
-207 29 -28 c51 -52 111 -52 162 0 l29 28 0 209 c0 228 -2 238 -60 268 -39 20
-69 19 -107 -5z"/>
<path d="M2070 1661 c-33 -33 -45 -69 -35 -108 9 -38 490 -519 528 -528 15 -4
39 -4 55 0 37 9 518 490 527 528 17 67 -27 126 -98 134 l-48 6 -205 -204 -204
-203 -203 202 c-201 199 -204 202 -246 202 -34 0 -49 -6 -71 -29z"/>
<path d="M2105 1066 c-68 -30 -93 -100 -57 -158 11 -18 126 -137 254 -264 162
-161 241 -233 261 -236 62 -12 77 0 315 236 128 127 243 246 254 264 36 59 10
129 -58 158 -60 25 -84 9 -291 -198 l-193 -193 -198 198 c-109 108 -205 197
-214 197 -9 0 -22 2 -30 5 -7 2 -26 -2 -43 -9z"/>
</g>
</svg>
