<?xml version="1.0" standalone="no"?>
<!DOCTYPE svg PUBLIC "-//W3C//DTD SVG 20010904//EN"
 "http://www.w3.org/TR/2001/REC-SVG-20010904/DTD/svg10.dtd">
<svg version="1.0" xmlns="http://www.w3.org/2000/svg"
 width="540.000000pt" height="540.000000pt" viewBox="0 0 540.000000 540.000000"
 preserveAspectRatio="xMidYMid meet">

<g transform="translate(0.000000,540.000000) scale(0.100000,-0.100000)"
fill="#b6e8fc" stroke="none">
<path d="M2475 5011 c-290 -61 -542 -222 -717 -459 -95 -129 -180 -328 -209
-492 -18 -104 -16 -316 5 -415 90 -422 381 -750 784 -885 634 -212 1325 168
1492 822 145 565 -169 1168 -717 1374 -140 53 -209 65 -383 70 -134 3 -182 0
-255 -15z m402 -467 c32 -8 96 -33 143 -56 67 -32 102 -59 171 -127 73 -72 94
-101 132 -181 59 -121 82 -229 74 -355 -11 -177 -79 -326 -207 -455 -267 -269
-713 -269 -980 0 -220 220 -270 528 -133 810 78 162 235 298 408 354 116 37
270 41 392 10z"/>
<path d="M1239 2623 c-270 -216 -346 -290 -434 -423 -71 -107 -112 -191 -150
-312 -46 -145 -55 -243 -55 -599 l0 -327 66 -56 c97 -83 177 -137 284 -194
309 -165 695 -265 1245 -324 188 -20 869 -17 1065 5 693 78 1151 237 1475 513
l67 58 -5 370 c-4 395 -9 438 -65 596 -56 158 -155 318 -268 436 -64 65 -509
430 -537 439 -6 2 -76 -77 -155 -175 l-142 -180 244 -194 c268 -214 311 -260
382 -401 64 -128 74 -189 74 -447 l0 -218 -42 -31 c-136 -98 -441 -201 -768
-258 -641 -113 -1470 -78 -2009 85 -147 45 -310 114 -381 162 l-55 37 -3 217
c-3 253 7 320 67 443 69 143 112 189 383 406 l248 199 -143 180 c-78 98 -145
179 -148 179 -4 1 -112 -83 -240 -186z"/>
</g>
</svg>
