<?xml version="1.0" standalone="no"?>
<!DOCTYPE svg PUBLIC "-//W3C//DTD SVG 20010904//EN"
 "http://www.w3.org/TR/2001/REC-SVG-20010904/DTD/svg10.dtd">
<svg version="1.0" xmlns="http://www.w3.org/2000/svg"
 width="300.000000pt" height="300.000000pt" viewBox="0 0 300.000000 300.000000"
 preserveAspectRatio="xMidYMid meet">

<g transform="translate(0.000000,300.000000) scale(0.100000,-0.100000)"
fill="#015f6b" stroke="none">
<path d="M1325 2880 c-167 -25 -283 -77 -375 -170 -99 -98 -110 -134 -110
-366 l0 -184 300 0 300 0 0 -30 0 -29 -502 -3 -503 -3 -60 -29 c-112 -55 -199
-176 -242 -336 -27 -99 -24 -377 5 -482 30 -109 66 -174 136 -244 96 -95 136
-107 373 -112 l192 -4 3 -226 3 -227 29 -55 c40 -76 122 -153 209 -194 95 -45
167 -63 309 -78 128 -12 280 -2 394 27 161 42 297 141 350 258 28 60 29 68 32
249 l4 188 -304 2 -303 3 -3 27 -3 28 473 0 c527 0 550 2 644 65 132 87 205
251 220 490 11 176 -33 373 -105 478 -42 61 -105 115 -170 146 -54 25 -64 26
-253 29 l-197 3 -3 222 c-3 216 -4 224 -29 278 -68 144 -213 237 -428 273 -98
17 -295 20 -386 6z m427 -139 c136 -35 217 -87 266 -170 l27 -46 3 -400 c3
-416 1 -448 -39 -499 -48 -61 -44 -61 -514 -66 -389 -5 -434 -7 -470 -24 -63
-29 -118 -79 -150 -137 -29 -52 -30 -59 -35 -219 l-5 -165 -159 -3 c-200 -3
-247 8 -315 76 -90 91 -125 204 -126 407 0 154 11 215 56 312 34 72 108 143
167 161 28 9 189 12 571 12 l532 0 -3 153 -3 152 -297 3 -298 2 0 110 c0 91 4
118 21 155 46 99 162 166 343 201 101 19 327 12 428 -15z m805 -776 c123 -52
190 -171 213 -379 28 -244 -49 -468 -184 -543 l-51 -28 -547 -3 -548 -3 0
-149 0 -150 306 0 306 0 -4 -117 c-4 -135 -19 -174 -87 -236 -112 -101 -327
-149 -564 -127 -227 22 -378 104 -426 233 -7 18 -11 174 -11 435 0 404 0 407
23 444 28 47 62 73 112 87 26 7 179 11 440 11 l400 0 60 28 c67 32 117 83 149
151 18 39 21 70 24 204 l4 157 174 0 c134 0 183 -4 211 -15z"/>
<path d="M1154 2580 c-36 -14 -74 -68 -74 -106 0 -75 47 -124 120 -124 52 0
83 18 105 60 51 98 -50 211 -151 170z"/>
<path d="M1755 636 c-43 -19 -65 -57 -65 -112 0 -39 5 -51 34 -80 28 -28 42
-34 75 -34 57 0 95 22 116 66 29 62 3 133 -61 160 -41 17 -60 17 -99 0z"/>
</g>
</svg>
