<?xml version="1.0" standalone="no"?>
<!DOCTYPE svg PUBLIC "-//W3C//DTD SVG 20010904//EN"
 "http://www.w3.org/TR/2001/REC-SVG-20010904/DTD/svg10.dtd">
<svg version="1.0" xmlns="http://www.w3.org/2000/svg"
 width="540.000000pt" height="540.000000pt" viewBox="0 0 540.000000 540.000000"
 preserveAspectRatio="xMidYMid meet">

<g transform="translate(0.000000,540.000000) scale(0.100000,-0.100000)"
fill="#7f7f7f" stroke="none">
<path d="M2811 3908 c-5 -18 -55 -202 -110 -408 -55 -206 -132 -494 -171 -640
-39 -146 -123 -456 -185 -690 -63 -234 -125 -467 -139 -519 -14 -52 -25 -96
-23 -97 6 -6 390 -104 394 -101 4 5 77 273 388 1437 48 179 125 464 171 635
46 170 81 311 79 313 -7 7 -358 102 -377 102 -10 0 -21 -13 -27 -32z"/>
<path d="M1012 3277 l-582 -582 583 -583 582 -582 145 145 144 144 -24 28
c-14 15 -208 211 -432 436 -225 224 -408 411 -408 415 0 4 196 203 435 442
l435 435 -142 142 c-79 79 -145 143 -148 143 -3 0 -267 -262 -588 -583z"/>
<path d="M3652 3717 l-142 -142 435 -435 c239 -239 435 -439 435 -445 0 -5
-195 -205 -432 -442 l-433 -433 145 -145 145 -145 582 582 583 583 -582 582
c-321 321 -585 583 -588 583 -3 0 -69 -64 -148 -143z"/>
</g>
</svg>
