<?xml version="1.0" standalone="no"?>
<!DOCTYPE svg PUBLIC "-//W3C//DTD SVG 20010904//EN"
 "http://www.w3.org/TR/2001/REC-SVG-20010904/DTD/svg10.dtd">
<svg version="1.0" xmlns="http://www.w3.org/2000/svg"
 width="540.000000pt" height="540.000000pt" viewBox="0 0 540.000000 540.000000"
 preserveAspectRatio="xMidYMid meet">

<g transform="translate(0.000000,540.000000) scale(0.100000,-0.100000)"
fill="#ffffff" stroke="none">
<path d="M2324 4304 c-228 -406 -377 -660 -389 -665 -11 -5 -301 -65 -645
-135 -344 -69 -673 -135 -733 -147 l-107 -22 431 -470 c237 -258 470 -512 517
-563 l86 -93 -28 -242 c-15 -133 -54 -471 -87 -752 -33 -280 -58 -513 -57
-517 2 -4 219 92 483 213 791 362 894 409 907 409 7 0 51 -18 98 -40 378 -178
1286 -587 1288 -581 1 4 -24 236 -57 516 -33 281 -72 619 -87 752 l-28 241 86
94 c47 51 280 304 517 563 l432 470 -38 8 c-21 4 -351 71 -733 148 -382 77
-704 143 -715 148 -12 6 -158 255 -389 665 -203 361 -372 656 -376 656 -4 0
-173 -295 -376 -656z m616 -631 l235 -416 465 -94 c256 -51 469 -94 473 -96 4
-1 -139 -162 -318 -356 -179 -195 -325 -362 -325 -370 1 -9 25 -223 54 -476
30 -253 53 -461 51 -463 -3 -4 -405 177 -759 342 -54 25 -105 46 -114 46 -13
0 -167 -68 -562 -250 -231 -107 -311 -142 -315 -138 -2 2 21 210 51 463 29
253 53 467 54 476 0 8 -146 175 -325 370 -179 194 -320 355 -313 357 7 2 220
45 473 96 l459 92 235 417 c130 229 238 417 241 417 3 0 111 -187 240 -417z"/>
</g>
</svg>
