<?xml version="1.0" standalone="no"?>
<!DOCTYPE svg PUBLIC "-//W3C//DTD SVG 20010904//EN"
 "http://www.w3.org/TR/2001/REC-SVG-20010904/DTD/svg10.dtd">
<svg version="1.0" xmlns="http://www.w3.org/2000/svg"
 width="512.000000pt" height="512.000000pt" viewBox="0 0 512.000000 512.000000"
 preserveAspectRatio="xMidYMid meet">

<g transform="translate(0.000000,512.000000) scale(0.100000,-0.100000)"
fill="#242424" stroke="none">
<path d="M2330 5110 c-65 -8 -106 -28 -149 -71 -49 -48 -58 -75 -86 -240 -14
-85 -29 -157 -33 -160 -4 -3 -36 -13 -72 -23 -125 -33 -246 -81 -399 -158
l-155 -77 -120 86 c-67 47 -135 92 -153 100 -48 20 -139 17 -187 -7 -91 -44
-373 -326 -416 -416 -22 -45 -26 -123 -9 -175 7 -19 50 -88 96 -153 47 -66 87
-125 90 -131 2 -7 -10 -35 -27 -63 -54 -89 -132 -263 -176 -399 -24 -73 -44
-140 -44 -147 0 -22 -5 -23 -146 -46 -184 -30 -215 -42 -267 -100 -58 -64 -68
-106 -74 -305 -6 -177 7 -326 33 -377 21 -42 71 -95 106 -114 15 -8 96 -26
179 -40 84 -13 156 -27 161 -30 4 -3 8 -13 8 -22 1 -63 147 -425 220 -543 16
-27 30 -53 30 -58 0 -4 -37 -59 -82 -122 -104 -145 -121 -185 -116 -258 2 -31
12 -72 21 -91 39 -81 333 -374 412 -411 48 -22 141 -25 189 -5 18 7 87 52 153
100 l121 86 123 -64 c145 -76 290 -135 409 -167 47 -12 88 -25 92 -28 4 -3 19
-75 33 -160 28 -165 37 -192 86 -240 48 -49 84 -62 195 -74 113 -12 160 -4
208 34 60 47 61 53 64 424 2 187 1 363 -3 392 -12 96 -75 158 -173 167 -288
30 -485 91 -694 215 -433 258 -710 706 -747 1208 -53 709 389 1363 1067 1577
104 32 233 57 374 72 88 9 150 60 168 140 12 49 12 684 1 743 -18 91 -87 141
-191 140 -36 -1 -90 -5 -120 -9z m140 -504 l0 -343 -87 -6 c-102 -8 -264 -43
-378 -82 -434 -149 -797 -476 -990 -890 -322 -689 -152 -1503 417 -2005 263
-233 626 -391 952 -416 l86 -7 0 -344 0 -345 -72 7 c-110 11 -110 11 -144 228
-22 140 -33 186 -49 204 -15 17 -50 31 -136 53 -182 45 -352 117 -525 221 -45
27 -93 49 -106 49 -27 0 -45 -11 -220 -136 -87 -63 -124 -84 -148 -84 -28 0
-53 21 -196 164 -139 138 -164 168 -164 193 0 22 29 70 110 184 80 111 110
162 110 183 0 18 -22 66 -55 122 -99 165 -163 321 -216 518 -16 62 -37 118
-47 129 -15 14 -66 27 -207 50 -232 39 -222 30 -231 202 -4 66 -3 169 1 229
10 150 3 145 230 182 137 22 185 34 203 49 16 14 31 52 51 130 52 197 117 354
216 519 31 53 55 105 55 120 0 20 -34 76 -110 183 -63 89 -110 165 -110 178 0
33 59 103 204 243 105 100 133 122 158 122 21 0 62 -23 146 -84 175 -125 193
-136 219 -136 13 0 67 25 119 56 170 100 407 196 556 225 103 20 109 30 142
246 35 227 33 224 184 231 l32 2 0 -344z"/>
<path d="M3260 4941 c-154 -47 -231 -221 -159 -362 20 -40 104 -119 125 -119
12 0 14 -52 14 -285 l0 -286 -25 -24 -24 -25 -284 0 -285 0 -15 24 c-37 56
-121 68 -282 40 -565 -97 -1011 -546 -1111 -1117 -21 -120 -21 -334 0 -454
100 -571 546 -1020 1111 -1117 161 -28 245 -16 282 40 l15 24 275 0 c286 0
321 -5 337 -45 3 -9 6 -142 6 -296 0 -228 -2 -279 -14 -279 -21 0 -105 -79
-125 -119 -81 -158 25 -350 203 -368 104 -11 198 41 248 136 66 126 16 280
-113 347 l-29 15 0 292 0 293 -26 52 c-14 29 -42 65 -62 82 -67 55 -98 60
-399 60 l-273 0 0 85 0 85 481 0 481 0 29 29 c31 31 36 59 17 94 -25 47 -17
46 -525 47 l-483 0 0 130 0 130 684 0 c429 0 694 -4 711 -10 48 -18 55 -57 55
-298 l0 -220 -30 -12 c-41 -17 -115 -99 -130 -144 -7 -21 -10 -67 -8 -106 5
-89 42 -152 116 -196 89 -54 192 -53 275 2 149 98 149 330 -1 425 l-47 30 -5
252 c-5 239 -6 255 -28 299 -13 27 -42 64 -65 83 -77 66 -65 65 -834 65 l-693
0 0 125 0 125 989 0 989 0 12 -30 c16 -38 78 -95 127 -115 21 -9 66 -17 100
-17 77 0 152 37 200 100 100 132 48 322 -106 388 -48 21 -146 21 -194 0 -49
-22 -111 -78 -127 -116 l-12 -30 -989 0 -989 0 0 125 0 125 693 0 c769 0 757
-1 834 65 23 19 52 56 65 83 22 44 23 60 28 299 l5 251 49 34 c106 71 142 211
84 323 -48 92 -124 138 -228 139 -106 0 -193 -58 -235 -157 -21 -50 -19 -152
4 -202 19 -43 95 -119 130 -130 21 -6 21 -10 21 -226 0 -242 -7 -281 -55 -299
-17 -6 -282 -10 -711 -10 l-684 0 0 130 0 130 483 0 c508 1 500 0 525 47 19
35 14 63 -17 94 l-29 29 -481 0 -481 0 0 85 0 85 273 0 c156 0 288 5 309 10
57 16 119 69 150 129 l28 53 0 294 0 294 38 19 c192 99 169 396 -37 466 -47
16 -109 18 -151 6z m109 -176 c75 -38 43 -155 -43 -155 -47 0 -91 50 -82 93
13 66 67 92 125 62z m861 -855 c10 -5 24 -25 30 -44 28 -85 -71 -145 -137 -83
-30 27 -31 82 -1 114 23 25 74 31 108 13z m-1760 -1350 c0 -1176 0 -1190 -20
-1190 -42 0 -219 40 -290 65 -334 121 -606 392 -724 723 -89 249 -89 556 0
804 120 332 393 605 724 722 78 28 235 64 283 65 l27 1 0 -1190z m2455 55 c16
-15 25 -36 25 -55 0 -75 -97 -110 -147 -54 -29 31 -29 73 -2 108 28 36 89 37
124 1z m-695 -1265 c10 -5 24 -25 30 -44 28 -85 -71 -145 -137 -83 -30 27 -31
82 -1 114 23 25 74 31 108 13z m-845 -865 c25 -24 32 -65 19 -100 -8 -19 -55
-45 -83 -45 -30 0 -70 41 -77 77 -5 27 -1 37 24 63 39 38 83 40 117 5z"/>
</g>
</svg>
